<svg xmlns="http://www.w3.org/2000/svg" viewBox="0 0 190.86 190.87">
    <g data-name="katman 2">
        <g data-name="katman 1">
            <path d="M.08 94.55c0-12.2-.06-24.41 0-36.62C.26 25.15 25.26.09 58.2 0h74.1c33.27-.09 58.59 25.26 58.56 58.36v74.1c0 33.11-25.31 58.44-58.56 58.35-25-.07-50 .21-75-.07-32.29-.37-56.65-24.8-57.23-57-.19-13.06.01-26.13.01-39.19Z" style="fill:#fd9770"/>
            <path d="M49.31 93.87V51.3c0-4-.49-8.06 5.31-8.93 1.29-.19 2.49-2.8 3.23-4.51 3-7 15.58-7.9 18.36.14 1.59 4.63 4.75 4.77 8.64 4.73 12.2-.11 24.4-.08 36.6 0 8 0 9.6 1.55 9.61 9.29q.09 41.72 0 83.43c0 8.58-.89 9.44-9 9.46H58.21c-8.61 0-8.82-.27-8.84-9.31-.08-13.92-.06-27.83-.06-41.73Z" style="fill:#fefefe"/>
            <path d="M139.74 103V60.53a19.87 19.87 0 0 1 .17-5.07 5 5 0 0 1 2.55-2.46c.29-.15 1.8 1.2 2 2.07a15.14 15.14 0 0 1 .21 4.22c0 29.46.05 58.92 0 88.38 0 9.1-1.93 10.89-11 10.91h-68a11.46 11.46 0 0 1-3.37-.07 23.21 23.21 0 0 1-3.85-2 22.48 22.48 0 0 1 4.26-1.6 30.83 30.83 0 0 1 5.09-.07h60.33a51.27 51.27 0 0 0 5.95-.08c3.83-.46 5.79-2.18 5.71-6.64-.23-15.07-.05-30.12-.05-45.12Z" style="fill:#fefaf9"/>
            <path d="M109.3 85.3c0 4.55-1.27 6.5-5.73 6.68s-6.75.85-6.57 6c.14 4.1-2.85 6.69-6.88 7.38-3.14.54-7.66-3.17-7.92-7.42S81 91.91 76.38 92c-3.85.08-6.14-2.61-6.46-6.51s2.1-6.8 6.7-7.12c3.86-.27 5.38-1.16 5.53-5.37.19-4.35 4.23-8 7.35-8.15 3.73-.11 7.12 3.17 7.55 8.57.29 3.68 1.49 4.63 5 4.86 6.09.41 7.29 1.93 7.25 7.02Z" style="fill:#fd9870"/>
            <path d="M90 115.75c6.21 0 12.42-.08 18.63.08 1.15 0 2.27 1 3.41 1.57a17.41 17.41 0 0 1-3.17 3.24c-.84.51-2.2.16-3.33.16H73.36c-.28 0-.61.1-.84 0-1.77-.9-3.51-1.84-5.27-2.77 1.66-.76 3.28-2.1 5-2.18 5.91-.27 11.85-.1 17.78-.1Z" style="fill:#fda481"/>
            <path d="M66.47 128.07c3.17-.68 5.78-1.7 8.42-1.75 10.22-.19 20.44-.11 30.65 0a13.77 13.77 0 0 1 4.92.8c.76.3 1.3 1.64 1.52 2.61.08.35-1.06 1.42-1.64 1.42q-20.82-.06-41.64-.37c-.53-.05-1.05-1.25-2.23-2.71Z" style="fill:#fda684"/>
            <path d="M73.36 45.27c2.36.38 5.62-1.58 5.13 3.12-.38 3.65.11 7.37-.15 11-.31 4.32-3.3 7.11-7 7s-6.25-3.1-6.53-7.46a11.54 11.54 0 0 1 .22-4.2 3.13 3.13 0 0 1 2.29-1.85c.8 0 1.6 1.17 2.34 1.88.16.16.06.56.15.82.65 1.8-1.47 5 2.26 5 .43 0 1.06-3.88 1.2-6 .24-3.07.09-6.17.09-9.31Z" style="fill:#fda17e"/>
            <path d="M74.94 42.11c-4 .31-5.88.67-7.75.54a36.54 36.54 0 0 1-5.38-1.13c.2-.77.19-2.05.63-2.23 2.14-.88 4.47-2.16 6.59-1.95 1.62.16 3.04 2.34 5.91 4.77Z" style="fill:#fd9d78"/>
        </g>
    </g>
</svg>
