<svg xmlns="http://www.w3.org/2000/svg" viewBox="0 0 190.85 190.91"><title>calendar_video</title><path d="M190.82,95.44v37.47c0,32.73-25.6,58.06-58.32,58q-37.05-.12-74.1,0C25.46,191-.24,165.27,0,132.09q.29-36.6,0-73.24C-.27,25.57,25.69-.39,59.22,0c24.13.29,48.26,0,72.4.07,30.69.1,53.73,19.46,58.83,49.4a52.53,52.53,0,0,1,.36,8.5C190.84,70.46,190.82,83,190.82,95.44Z" fill="#53d0ec"/><path d="M152.06,130.59,129.2,107.48l-1.11.52q0,9.25,0,18.52c0,5.35-2.64,8-8,8q-37.38,0-74.77,0c-5.39,0-8.15-2.73-8.15-8q0-31,0-62c0-5.56,2.72-8.19,8.41-8.2q37.19,0,74.38,0c5.64,0,8.18,2.63,8.18,8.31,0,6.07,0,12.14,0,19.15l24.49-24.55c.58,2.44,1.13,3.69,1.13,5q.09,31.18,0,62.38a26,26,0,0,1-.5,3.71Z" fill="#fafdfe"/></svg>