<svg data-name="katman 1" xmlns="http://www.w3.org/2000/svg" viewBox="0 0 190.85 190.91">
    <g data-name="katman 2">
        <g data-name="katman 1-2">
            <path d="M190.82 95.44v37.47c0 32.73-25.6 58.06-58.32 58q-37.05-.12-74.1 0C25.46 191-.24 165.27 0 132.09q.29-36.6 0-73.24C-.27 25.57 25.69-.39 59.22 0c24.13.29 48.26 0 72.4.07 30.69.1 53.73 19.46 58.83 49.4a52.53 52.53 0 0 1 .36 8.5c.03 12.49.01 25.03.01 37.47Z" style="fill:#53d0ec"/>
            <path d="m166.22 139.37-28.58-28.89-1.39.65v23.15c0 6.7-3.31 10.06-10 10.06H32.78c-6.73 0-10.18-3.41-10.19-10.06V56.8c0-7 3.39-10.24 10.5-10.25h93c7 0 10.22 3.27 10.23 10.38v23.93l30.62-30.69c.72 3.06 1.41 4.63 1.42 6.19q.09 39 0 78a36.64 36.64 0 0 1-.62 4.64Z" style="fill:#fafdfe"/>
        </g>
    </g>
</svg>
