<svg id="katman_1" data-name="katman 1" xmlns="http://www.w3.org/2000/svg" viewBox="0 0 190.83 190.87"><title>Çalışma Yüzeyi 1</title><g id="katman_2" data-name="katman 2"><g id="katman_1-2" data-name="katman 1-2"><path d="M190.82,95.44v37.47c0,32.73-25.6,58.06-58.32,58q-37.05-.12-74.1,0C25.46,191-.24,165.27,0,132.09Q.29,95.48,0,58.85C-.27,25.57,25.69-.39,59.22,0c24.13.29,48.26,0,72.4.07,30.69.1,53.73,19.46,58.83,49.4a52.49,52.49,0,0,1,.36,8.5C190.84,70.46,190.82,83,190.82,95.44Z" fill="#f94169"/><path d="M64.74,107.38l.12,1.72c-.4,2.7-1.78,5.05-2.68,7.57-2.73,4.83,0,11.77-5.9,15.36a6,6,0,0,0-2.59,1.77c-.69.68-1.39,1.36-2.07,2a9.66,9.66,0,0,0-1.56,2.2c-.51.65-1.27,1.12-1.46,2a3.05,3.05,0,0,1-.43,1.56c-.49.64-1.23,1.11-1.29,2v1.67a3.83,3.83,0,0,1-.37,1.66c-.23.52-.45,1.05-.68,1.57a12.85,12.85,0,0,0-.58,1.61,9.54,9.54,0,0,0,0,1.69,3.81,3.81,0,0,0,1.31,2,1.7,1.7,0,0,0,.7.6,5.12,5.12,0,0,1-.44-.28,7.35,7.35,0,0,0-.94-1.07,2.53,2.53,0,0,1-.6-1.6,4.85,4.85,0,0,1,.06-.93c.06-.32.18-.6.26-.9.37-.89.73-1.76,1.11-2.63a7.16,7.16,0,0,0,.25-1.84,9.18,9.18,0,0,1,.18-1.81c.44-.75,1.19-1.3,1.47-2.16a4.83,4.83,0,0,1,.46-1.67,5.4,5.4,0,0,0,1.45-2.14,9.25,9.25,0,0,1,1-1.33c.68-.64,1.33-1.32,2-2a8.79,8.79,0,0,1,2.32-1.79c2-.09,3.9-1.39,6-.61a8,8,0,0,0,1.92.51,6.57,6.57,0,0,1,1.92.29,14.41,14.41,0,0,1,2.11,1.87c.63.63,1.25,1.27,1.9,1.88a6.34,6.34,0,0,1,.92,1.43c.18.87.9,1.38,1.41,2a3,3,0,0,1,.43,1.57c.17.86.92,1.33,1.38,2a3.34,3.34,0,0,1,.29,1.62,13.25,13.25,0,0,0,.07,1.67,8.27,8.27,0,0,0,.58,1.6c.33.81.71,1.61,1,2.45a7.74,7.74,0,0,1,0,1.8,9.58,9.58,0,0,1-1,1.45.76.76,0,0,0-.48.73c.11-.06-.19-.28-.15-.35a.91.91,0,0,0,.88-.67,2.89,2.89,0,0,0,1-2,7,7,0,0,0-.11-1.65c-.3-.79-.66-1.54-1-2.33,0,0-.33-.77-.34-.77a4.16,4.16,0,0,1-.27-1.64q0-.83-.06-1.65c-.17-.88-.94-1.35-1.4-2a8.29,8.29,0,0,1-.37-1.64,4.31,4.31,0,0,0-1-1.33c-.58-.65-.87-1.48-1.45-2.13l-2-1.87a16.18,16.18,0,0,0-2-1.88,8,8,0,0,0-2.84-.77,6.79,6.79,0,0,1-1.74-1.21c-3.08-3.59,0-7.11.09-10.66a8.22,8.22,0,0,1,.46-2.19,15.82,15.82,0,0,0,1.61-4.14c.89-1.61,1.53-3.42,3.28-4.38,1-.95,1.92-2.22,3.13-2.72.89-.37,2.89-.09,3.21.52,4.67,9.14,13.59,10.51,22.18,11.73a34.29,34.29,0,0,0,22.73-4.84c2.52-1.52,4.52-4.19,6.2-6.71,2.12-3.19,3.14,0,4.65.42a5.51,5.51,0,0,1,2.84,2.52c.53.83,1.2,1.55,1.77,2.34a10.75,10.75,0,0,1,1.09,2.73,7.83,7.83,0,0,0,.78,1.84c.14.31.27.63.42.94a10.65,10.65,0,0,1,.5,2c.27,1.44,1,2.83.32,4.34-1.08,2-3.16,3.28-4,5.43-1.56,4-.62,7.28,3.1,9.47,3.18,1.89,6.06,1.06,8.2-1.8,2.33-3.11,2.45-6.45-.52-9.16-2.72-2.49-5.65-4.7-6.79-8.42a10.75,10.75,0,0,0-.93-3.13,9.6,9.6,0,0,1-.94-1.9,11.77,11.77,0,0,0-.76-2l-.53-.91a6.28,6.28,0,0,1-1.5-2.79,3.07,3.07,0,0,1,.93-1.88c15.41,2.9,23.23,13.86,28.76,27.18a24.4,24.4,0,0,1,1.65,6.56c1.54,14.41-1.84,26.08-20.23,28.06-3.37.36-6.71,1.15-10.07,1.17-22.71.11-45.42.16-68.12,0a72,72,0,0,1-15.12-1.84C40,166.22,34.57,159,34.13,148.85c-.8-18.75,12.41-36.93,28.84-41.66a1.11,1.11,0,0,1,1.58,0A.83.83,0,0,1,64.74,107.38Z" fill="#fefefe"/><path d="M78.24,97.35l-1.63-1.69a12.74,12.74,0,0,0-1.44-1.91l-1.92-3.3A8.58,8.58,0,0,1,72,88.66L71.56,87a5.34,5.34,0,0,1-1.15-1.78c-4.48-11.54-6.69-23.29-2.59-35.42,4.89-14.46,19.52-23.93,34.24-22.35,14.51,1.55,27.68,14.29,29,29,1.3,14.52-1.78,28.26-10.74,40-11,14.5-30.26,17.31-42.12.82a17,17,0,0,0,1.49-2A3.72,3.72,0,0,1,82.06,95c3,.86,5.39,3,8.26,4.24a19.85,19.85,0,0,0,23-5.79c3.12-3.69,4.64-8.43,7.26-12.35,7.22-10.83-.77-18.58-4.7-27.14-1.46-3.18-4.33-1.79-6.7-.92-7.47,2.75-14.93,2.21-22.49.29-10.08-2.57-10.63-2.12-11.26,8A32.53,32.53,0,0,1,75,65.51a9,9,0,0,1-1.35,3.09,7.1,7.1,0,0,0-1.28,2.84c-.17,2.46.87,4.76,1,7.17A21.71,21.71,0,0,0,74,82.44c.23.56.43,1.14.64,1.71.36.81.72,1.63,1.13,2.42.3.51.56,1,.83,1.56a9.46,9.46,0,0,0,1,1.49l.56.73a8.88,8.88,0,0,1,1,1.57,5.73,5.73,0,0,1,.43,1.87,7.15,7.15,0,0,1-.44,1.88A5.37,5.37,0,0,1,78.24,97.35Z" fill="#fefdfd"/><path d="M66.8,109.21l-2.16,5c-1,1-.58,2.53-1.51,3.52a2.64,2.64,0,0,1-.21,1.52c-3.14.1-2.53-1.55-1.57-3.36l3.51-6.77Z" fill="#f94169"/><path d="M131.17,110.88l-2.27-3.27,2.63-.35a1,1,0,0,1,1.41.12l.05.07-.12-.14-.22,1.82A2.8,2.8,0,0,1,131.17,110.88Z" fill="#f94169"/><path d="M64.74,107.38,63,107.19,65.43,106Z" fill="#fb93a9"/><path d="M75.17,93.75l1.44,1.91Z" fill="#fdebef"/><path d="M133,107.45a6.57,6.57,0,0,0-1.46-.19Z" fill="#fefefe"/><path d="M72,88.66l1.21,1.79Z" fill="#fdecf0"/><path d="M70.41,85.23c.38.6.76,1.19,1.15,1.78C71.17,86.42,70.79,85.83,70.41,85.23Z" fill="#fde3e9"/><path d="M137.59,117.71c1,3.24,2.32,5.76,5.7,7.64,5.57,3.11,6.39,8.76,2.9,13.53-3.38,4.61-9.55,5.14-14,1.21-4.06-3.64-4-10,.19-14.08,1.16-1.14,2.52-2.08,3.78-3.12-.83-1.06-.54-2.53-1.32-3.61l-.22-1.71a1.72,1.72,0,0,1,3,.14Z" fill="#f9446b"/><path d="M126,155.22c-1.27.51-2.28,1.26-3.29,1.26-2.91,0-3.68,1.55-4.1,4.11a3.75,3.75,0,0,1-2.9,2.24c-1,0-2.77-1.47-2.82-2.37-.16-2.87-1.56-3.43-4.08-4.15s-2.46-3.85.14-4.65,3.71-1.72,3.89-4.41c.06-.88,1.65-2.23,2.62-2.3s3.08,1,3.17,1.68c.35,2.81.9,4.88,4.35,5C123.6,151.63,124.22,153.06,126,155.22Z" fill="#f94f73"/><path d="M61.35,115.87c.52,1.12,1,2.24,1.57,3.36.78,4-3.28,8.09.13,12.08.58.26.78.52.6.81s-.36.44-.55.44l-8.57.36h0c1.44-2.16,3.57-3.63,3.74-6.88C58.49,122.63,60.27,119.27,61.35,115.87Z" fill="#fa6484"/><path d="M73.21,155.07c-.11,1.06.07,2.32-.45,3.13a2.89,2.89,0,0,1-2.53,1.12,3,3,0,0,1-1.58-2.44c.08-.7,1.33-1.48,2.21-1.84a6.09,6.09,0,0,1,2.44.11Z" fill="#f95a7c"/><path d="M47.75,155c1,.16,2.28,0,3,.57a2.83,2.83,0,0,1,.93,2.57,3,3,0,0,1-2.41,1.5c-.7-.09-1.45-1.32-1.79-2.2a5.79,5.79,0,0,1,.17-2.38Z" fill="#fa6283"/><path d="M136.23,117.61h-1.57l-.1.1a7.35,7.35,0,0,1-1.18-1.83l-1-3.15a1.34,1.34,0,0,1,1.83-.55,1.27,1.27,0,0,1,.42.35l.09-.12c.46.61.89,1.23,1.31,1.87a2.67,2.67,0,0,1,.39,1.51,1.19,1.19,0,0,1,0,1.68Z" fill="#f94169"/><path d="M44.51,148.34l1.43-1.79c.51-.82,1.06-.8,1.64-.07l-1.46,3.57A3.61,3.61,0,0,1,44.51,148.34Z" fill="#fbafc0"/><path d="M75.07,146.47,76.54,150c-.55.82-1.09.78-1.64,0l-1.37-1.78A3.26,3.26,0,0,1,75.07,146.47Z" fill="#fba7b9"/><path d="M134.62,112.49l-2.25.2-1.2-1.81c.49-.58,1-1.17,1.48-1.75Z" fill="#f94169"/><path d="M71.57,138l1.56,1.77c-.54.76-1,.74-1.49-.07l-1.5-1.81A.85.85,0,0,1,71.57,138Z" fill="#fb93a9"/><path d="M47.9,139.78l1.62-1.73c.37-.57.78-.64,1.25-.12l-1.42,1.8C48.9,140.56,48.41,140.58,47.9,139.78Z" fill="#fa869f"/><path d="M46.23,143.24l1.5-1.79c.41-.63.86-.7,1.37-.12l-1.44,1.81C47.23,144,46.76,144,46.23,143.24Z" fill="#fb99ae"/><path d="M73.32,141.45l1.49,1.81c-.56.74-1,.67-1.5-.11l-1.47-1.84a.83.83,0,0,1,1.16-.24A.79.79,0,0,1,73.32,141.45Z" fill="#fba5b8"/><path d="M134.88,119.28l1.32,3.61Z" fill="#fa6b8a"/><path d="M63.13,117.71c.5-1.18,1-2.35,1.51-3.52C64.14,115.36,63.63,116.53,63.13,117.71Z" fill="#fa6484"/><path d="M44.51,148.34l1.61,1.71L46,150c-.49.75-1,.76-1.52,0A3.22,3.22,0,0,1,44.51,148.34Z" fill="#fb9db2"/><path d="M75.07,146.47l-1.54,1.74-.06-1.73c.54-.69,1-.67,1.52.08Z" fill="#fba6b8"/><path d="M44.51,150H46l-.1,1.71c-.46.6-.93.61-1.4,0Z" fill="#fb8ea6"/><path d="M73.3,155.15,75,153.4v-.05l-1.76,1.72Z" fill="#fb8fa6"/><path d="M46,153.4l1.75,1.6-.07.06-1.62-1.76Z" fill="#fb91a8"/><path d="M75,146.56a12.79,12.79,0,0,1-1.52-.08,2.77,2.77,0,0,1,0-1.66c.43-.57.86-.57,1.28,0Z" fill="#fa7f99"/><path d="M47.58,146.48a12.78,12.78,0,0,1-1.64.07l.26-1.74c.43-.56.88-.56,1.32,0A3.16,3.16,0,0,1,47.58,146.48Z" fill="#fa87a0"/><path d="M74.79,144.83H73.51a3.52,3.52,0,0,1-.2-1.67,9.47,9.47,0,0,1,1.5.11A2.38,2.38,0,0,1,74.79,144.83Z" fill="#fa6e8b"/><path d="M47.52,144.8H46.19a2.48,2.48,0,0,1,0-1.57,13.55,13.55,0,0,1,1.43-.1A3.16,3.16,0,0,1,47.52,144.8Z" fill="#fa6c8a"/><path d="M74.9,150h1.64v1.7a.9.9,0,0,1-1.25.24.91.91,0,0,1-.24-.24A6.94,6.94,0,0,1,74.9,150Z" fill="#fb99ae"/><path d="M44.53,151.69h1.4L46,153.4l.07-.07Z" fill="#fa839c"/><path d="M73.32,141.45a12.15,12.15,0,0,1-1.48-.14,2.73,2.73,0,0,1-.2-1.57,10.62,10.62,0,0,1,1.49.07A3.52,3.52,0,0,1,73.32,141.45Z" fill="#fa6c8a"/><path d="M75,151.67h1.49L75,153.35v-1.68Z" fill="#fb8ca4"/><path d="M136,114.24l-1.31-1.87Z" fill="#fa6b8a"/><path d="M133.38,115.84l1.18,1.83Z" fill="#fa6b8a"/><path d="M136.23,117.61l.18-1.86c.4.65.79,1.31,1.18,2Z" fill="#fa6b8a"/><path d="M63.1,132.56a10.45,10.45,0,0,0-.05-1.25l1.69.08c.46.32.62.64.47,1s-.3.48-.46.48Z" fill="#f9587b"/><path d="M64.75,132.83v-1.44l1.74,1.54h0Z" fill="#fa728e"/><path d="M52.9,134.67,54.56,133h0l-1.71,1.67Z" fill="#f95579"/><path d="M66.48,132.93l1.65,1.75.09-.09Z" fill="#f9567a"/><path d="M51.19,136.38l1.71-1.71-.08-.08L51.1,136.3Z" fill="#f96484"/><path d="M69.94,136.29l-1.73-1.7-.08.08,1.7,1.71Z" fill="#f96080"/><path d="M50.77,137.93a8.67,8.67,0,0,0-1.25.12l1.67-1.67-.09-.08Z" fill="#f96080"/><path d="M71.57,138l-1.43-.11a1.87,1.87,0,0,1-.2-1.64l-.11.09Z" fill="#f96080"/><path d="M49.1,141.33l-1.37.12a3.07,3.07,0,0,1,.17-1.67l1.45-.05A2.23,2.23,0,0,1,49.1,141.33Z" fill="#fa728e"/><path d="M71.68,79.94l-1.53-10a2.47,2.47,0,0,1,1.72-.82c1.34-.37,2.51-.85,1.7-2.62.28-4.73.25-9.51,1-14.18.48-3.22,2.44-4.56,6.12-3.06a52.38,52.38,0,0,0,12.17,3.26c6.48.91,13,.69,18.9-2.69,3-1.71,4.51-.73,5.7,1.94s2.09,5.88,3.77,8.4c1,1.5-1.23,6.91,4.11,4.11A8.81,8.81,0,0,1,126,67c-1,10.92-4.45,21.12-12.16,29-7.24,7.4-17.79,10.94-28.92,2.77-1.58-1.16-3.11-2.4-4.66-3.6-1.31,0-1.29-1.08-1.64-1.88A1.87,1.87,0,0,0,77.94,92a3.41,3.41,0,0,0-1.28-1.6v-.05a6.87,6.87,0,0,1-1.43-2.18,1.73,1.73,0,0,0-.39-1.26,10,10,0,0,1-1.34-2.06,2.21,2.21,0,0,0-.32-1.35C72.28,82.49,72.57,81,71.68,79.94Z" fill="#f94169"/><path d="M73.57,66.46c2.72,3.12.32,3.27-2,3.45a.9.9,0,0,1-.39-1c.11-.33.21-.5.33-.5Z" fill="#fa728f"/><path d="M71.68,79.94c.49,1.2,1,2.39,1.46,3.59C72.66,82.33,72.17,81.14,71.68,79.94Z" fill="#fde3e9"/><path d="M71.5,68.45a11.8,11.8,0,0,1,.06,1.46H70.15Z" fill="#f94169"/><path d="M76.66,90.43c.42.54.85,1.07,1.28,1.6C77.51,91.5,77.08,91,76.66,90.43Z" fill="#fdebef"/><path d="M78.62,93.32c.54.63,1.09,1.25,1.64,1.88l-.25.41a1.13,1.13,0,0,1-1.59-.14l0,0Z" fill="#fdebef"/><path d="M78.4,95.45a5.84,5.84,0,0,1,1.61.16L78.2,97.32h0Z" fill="#fefefe"/><path d="M75.19,88.2l1.43,2.18C76.14,89.65,75.67,88.92,75.19,88.2Z" fill="#fdecf0"/><path d="M73.46,84.88l1.34,2.06Z" fill="#fde3e9"/></g></g></svg>