<svg xmlns="http://www.w3.org/2000/svg" viewBox="0 0 18.04 18.04"><defs><style>.cls-1{fill:#959ea1;}</style></defs><title>Varlık 7</title><g id="katman_2" data-name="katman 2"><g id="katman_1-2" data-name="katman 1"><path class="cls-1" d="M8.9,18c-2.33,0-4.66-.05-7,0C.55,18.08,0,17.61,0,16.18.06,11.36.05,6.54,0,1.72,0,.41.54,0,1.79,0Q9,.06,16.25,0C17.5,0,18.05.4,18,1.72,18,6.54,18,11.36,18,16.18c0,1.43-.54,1.89-1.91,1.85C13.72,18,11.31,18,8.9,18Zm6.62-2.4C17,14.13,16,11.19,16,8.9s1-5.11-.44-6.47S11.25,2,9,2s-5.13-1-6.51.38-.45,4.42-.46,6.71-1,5.1.44,6.47,4.29.24,6.51.45C11.24,15.85,14.14,17,15.52,15.61ZM6,5.16C6,4.5,5.81,4.05,5,4s-1,.44-1,1.1v7.73c0,.66.2,1.11,1,1.12s1-.44,1-1.11V5.16Zm8,4.31c0-.66.07-1.38-.93-1.42C11.92,8,12,8.84,12,9.57c0,1,0,2,0,3,0,.65-.08,1.38.92,1.42,1.17,0,1-.79,1.07-1.53,0-.41,0-.83,0-1.24C14,10.63,14,10.05,14,9.47ZM9.11,9.1c-1.88-.06-1,1.59-1,2.45s-.77,2.31.84,2.37c1.9.07.71-1.62,1.17-2.43C9.67,10.68,10.75,9.16,9.11,9.1Z"/></g></g></svg>