<svg xmlns="http://www.w3.org/2000/svg" viewBox="0 0 27.23 34.14"><defs><style>.cls-1{fill:#a32138;}.cls-2{fill:#a32038;}.cls-3{fill:#a42239;}.cls-4{fill:#a4233a;}</style></defs><title>Varlık 1</title><g id="katman_2" data-name="katman 2"><g id="katman_1-2" data-name="katman 1"><path class="cls-1" d="M17.73,21.91l-2.89,6.61C13.65,25,12.62,22,11.45,18.59c-2,1.62-2.08,3.56-2.67,5.19-.7,2-2.24,1.8-3.59,1.46-1.95-.5-.75-2-.47-2.92A9,9,0,0,1,13,15.94a9.12,9.12,0,0,1,8.7,5.79c.43,1.13,1.55,2.67-.06,3.46s-2.28-.66-2.75-2C18.77,22.84,18.38,22.6,17.73,21.91Z"/><path class="cls-2" d="M10.85,22.61c2,3,1.78,6.64,3.92,9.36,1.62-1.32,1.57-3.23,2.41-4.67.27-.46-.12-1.74,1.66-.95,3.23,1.44,3.66,2.06,1.25,4.77C15.9,35.84,7.87,34.86,5.26,29.31c-.53-1.13-1.17-2.14,1-2.46C9.47,26.37,9.45,26.23,10.85,22.61Z"/><path class="cls-3" d="M13.57,3A26.23,26.23,0,0,0,2.76,5.42C1.83,5.84.83,6.58.18,5-.39,3.61.46,3.11,1.52,2.64a28.23,28.23,0,0,1,24.3.22C27,3.39,27.6,4,27,5.29c-.73,1.56-1.73.64-2.64.23A26.7,26.7,0,0,0,13.57,3Z"/><path class="cls-4" d="M13.36,4.66A23.74,23.74,0,0,1,24.14,7.55c1,.57,1.83,1.09,1.23,2.45-.71,1.58-1.6.81-2.54.31a18.79,18.79,0,0,0-18.6-.16c-.78.4-1.61,1.11-2.29-.2S1.7,8,2.85,7.41A23.84,23.84,0,0,1,13.36,4.66Z"/><path class="cls-4" d="M13.31,12.58a12.94,12.94,0,0,0-7.56,2.18c-.84.53-1.58,1-2.21-.25a1.72,1.72,0,0,1,.6-2.38C8.3,8.58,18.75,8.76,23,12.4a1.77,1.77,0,0,1,.46,2.7c-.87,1.42-1.62.19-2.25-.21A13.39,13.39,0,0,0,13.31,12.58Z"/></g></g></svg>