<svg xmlns="http://www.w3.org/2000/svg" viewBox="0 0 19.97 19.97"><defs><style>.cls-1{fill:#959ea1;}</style></defs><title>Varlık 9</title><g id="katman_2" data-name="katman 2"><g id="katman_1-2" data-name="katman 1"><path class="cls-1" d="M20,10A10.14,10.14,0,0,1,9.91,20,10.15,10.15,0,0,1,0,9.85,10.15,10.15,0,0,1,9.93,0,10.13,10.13,0,0,1,20,10ZM10,9.13c-1.89,0-.84,2-.89,3s-.91,2.74.94,2.72.52-1.87,1.18-2.92C10.21,11.21,12.09,9.08,10,9.13ZM10,5c-.54,0-1,.15-1,.77S9,6.93,9.84,7c.64,0,1.13-.12,1.11-.9S10.74,5,10,5Z"/></g></g></svg>