<svg xmlns="http://www.w3.org/2000/svg" viewBox="0 0 20 20.02"><defs><style>.cls-1{fill:#969fa2;}</style></defs><title>Varlık 5</title><g id="katman_2" data-name="katman 2"><g id="katman_1-2" data-name="katman 1"><path class="cls-1" d="M20,5.34a5.84,5.84,0,0,1-1.72,4.18c-2.89,2.88-5.73,5.8-8.66,8.64-2.49,2.42-5.77,2.46-8,.2s-2.15-5.51.29-8c2.91-3,5.84-5.93,8.85-8.81a5.06,5.06,0,0,1,6-1A5.49,5.49,0,0,1,20,5.34Zm-8.62,8.05c.12-.49-.2-.75-.44-1.08C7.84,8.06,6.77,8,3.29,11.84c-.17.18-.34.36-.5.55a3.06,3.06,0,0,0-.48,3.48A3.66,3.66,0,0,0,5.26,18C6.62,18,11.09,14.53,11.38,13.39ZM8.59,6.75a.94.94,0,0,0,.22.67C10,8.67,11.26,9.91,12.5,11.13c.56.56,1,.27,1.48-.19,1.09-1.14,2.24-2.23,3.28-3.41a2.87,2.87,0,0,0,.3-3.48A3.31,3.31,0,0,0,14.4,2C13.28,2.06,8.68,5.77,8.59,6.75Zm2.73-1.34a.77.77,0,0,0,0,1.12c1,1,1.63-.28,2.45-.39a2,2,0,0,1,.49,0c.83.11,1.91.37,1.85-.88,0-1-1.16-1-1.94-1.17A3.92,3.92,0,0,0,11.32,5.41Z"/></g></g></svg>