<svg xmlns="http://www.w3.org/2000/svg" viewBox="0 0 19.93 15.99"><defs><style>.cls-1{fill:#959ea1;}</style></defs><title>Varlık 8</title><g id="katman_2" data-name="katman 2"><g id="katman_1-2" data-name="katman 1"><path class="cls-1" d="M0,3.23c3.15,2.2,5.83,4,8.43,5.93a2.29,2.29,0,0,0,3.12,0c2.6-1.92,5.28-3.73,8.34-5.87,0,4,.09,7.56,0,11.14,0,1.09-1.12,1.56-2.24,1.56H2.38A2.1,2.1,0,0,1,0,13.68C0,10.38,0,7.08,0,3.23ZM2.15,0C1.56,0,.92.12.72.75s.46.82.83,1.09C4,3.57,6.44,5.27,8.86,7a1.71,1.71,0,0,0,2.26,0C13.54,5.28,16,3.58,18.43,1.84c.38-.26,1-.45.84-1.07S18.45,0,17.85,0H2.15Z"/></g></g></svg>