<svg xmlns="http://www.w3.org/2000/svg" viewBox="0 0 57.38 46.07"><title>aufklarung-main</title><path d="M11.41,25.1c-2.45-1.05-4.75-2-7-3A6.63,6.63,0,0,1,0,15.7,6.56,6.56,0,0,1,4.35,9.31C10.94,6.51,17.51,3.69,24.11.92a11.49,11.49,0,0,1,9.38.17C39.85,3.81,46.26,6.41,52.6,9.17c4.8,2.08,5.95,5.75,3.6,10.49A11.2,11.2,0,0,0,56,29a11.57,11.57,0,0,1,.59,6.86A3.05,3.05,0,0,1,52.73,37c-1.65-.63-1.56-2.13-1.84-3.56-.49-2.47,1.6-4.2,1.56-6.49,0-1.4,0-2.81,0-4.58l-6.59,2.69c0,3.23-.11,6.43,0,9.62a8.28,8.28,0,0,1-5,8.4A27,27,0,0,1,16.1,43a8,8,0,0,1-4.72-8.13C11.55,31.66,11.41,28.44,11.41,25.1Z" fill="#a11c34"/><path d="M51.44,14.76a3.58,3.58,0,0,1-2.58,2.85C43,20.14,37,22.62,31.09,25.1a5.11,5.11,0,0,1-4.16.27C20.47,22.63,14,19.93,7.52,17.2a2,2,0,0,1-1.36-1.53A1.84,1.84,0,0,1,7.5,14.18c6.36-2.7,12.7-5.42,19.08-8.06a4.17,4.17,0,0,1,2.77-.31C36.73,8.71,44.06,11.75,51.44,14.76Z" fill="#fefefe"/><path d="M40.11,26.41V36.59c-1.75,2.71-4.53,3.39-7.38,3.88a25.17,25.17,0,0,1-3.56.39c-10.71.2-13-2.29-12.39-14C24.45,32,32.14,33.15,40.11,26.41Z" fill="#fefdfd"/></svg>