<svg xmlns="http://www.w3.org/2000/svg" viewBox="0 0 35.86 41.07"><title>bibliothek-main</title><path d="M17.9,41.07A27.82,27.82,0,0,0,0,33.91V12.12c5.47-.44,13.19,2.52,17.88,7a27.58,27.58,0,0,1,18-7.12V33.89A27.93,27.93,0,0,0,17.9,41.07Z" fill="#a11c34"/><path d="M18,0c3-.08,6,2.94,6,6a6.35,6.35,0,0,1-6.19,6A6.33,6.33,0,0,1,11.89,5.9,6.29,6.29,0,0,1,18,0Z" fill="#a21d34"/><path d="M25.28,25.38c.22-2.11.41-2.38,1.63-2.38s1.4.27,1.62,2.38c2.1.22,2.38.4,2.38,1.62s-.28,1.41-2.38,1.63c-.22,2.1-.41,2.37-1.62,2.37s-1.41-.27-1.63-2.37c-2.1-.22-2.37-.41-2.37-1.63S23.18,25.6,25.28,25.38Z" fill="#fefefe"/></svg>