<svg xmlns="http://www.w3.org/2000/svg" viewBox="0 0 40.03 40.03"><title>daten-main</title><path d="M40,19.94c0,4.5,0,9,0,13.49C40,37.56,37.6,40,33.51,40q-13.48,0-27,0C2.45,40,0,37.57,0,33.45Q0,20,0,6.48C.05,2.52,2.46.05,6.39,0Q20,0,33.61,0C37.55.05,40,2.51,40,6.46,40.05,11,40,15.45,40,19.94Z" fill="#a11c34"/><path d="M36,20c0,4.24-.08,8.49,0,12.73.06,2.31-.73,3.33-3.16,3.31q-12.86-.12-25.71,0c-2.42,0-3.21-1-3.19-3.29.08-8.49,0-17,0-25.46C4,4.44,4.45,4,7.4,4H32.61c3,0,3.4.39,3.4,3.51Q36,13.77,36,20Z" fill="#fefefe"/><path d="M20,16c0,.25,0,.5,0,.75,0,6.72-1.37,8-8.11,7.3-2.3-.22-3.73-1.52-3.85-3.81-.15-2.81,0-5.64,0-8.46A2.65,2.65,0,0,1,8.16,11c.75-2.61,3.24-3.52,8.09-3A4,4,0,0,1,20,12.22C20.06,13.46,20,14.71,20,16Z" fill="#a11c34"/><path d="M20,32c-3.07,0-6.15,0-9.22,0C9.3,32,8,31.64,8.1,29.9,8.17,28.33,9.4,28,10.79,28Q20,28,29.23,28c1.5,0,2.78.39,2.7,2.13-.07,1.56-1.3,1.91-2.69,1.89C26.16,32,23.09,32,20,32Z" fill="#a11c34"/><path d="M28.12,12h-1c-1.51.05-3.05-.11-3-2s1.56-2,3.07-2c.82,0,1.65,0,2.48,0C31,8,32,8.63,31.94,10s-1,2-2.33,2Z" fill="#a21e36"/><path d="M27.92,20c-.57,0-1.15,0-1.73,0a1.92,1.92,0,0,1-2.11-1.95,1.9,1.9,0,0,1,2-2c1.08-.05,2.15,0,3.23,0,1.4,0,2.57.41,2.59,2s-1.09,2.08-2.53,2H27.92Z" fill="#a21e36"/><path d="M16,16.07a12.61,12.61,0,0,0,0,1.74c.22,1.62-.21,2.26-2.07,2.29-2,0-2.05-1-2-2.4A22,22,0,0,0,12,14c-.2-1.71.53-2,2.08-2s2.22.22,2,1.87A15.08,15.08,0,0,0,16,16.07Z" fill="#fefefe"/></svg>