<svg xmlns="http://www.w3.org/2000/svg" viewBox="0 0 83.64 88.76"><title>dokumente-main</title><path d="M.11,64.3V32.8a34.91,34.91,0,0,0,.1-4.09c.05-.71.18-1.37,1-1.6A2,2,0,0,1,3.44,28c.7.91.7.91,1.35,1.07.29-.16.28-.43.27-.71C4.84,22.7,5,17.08,5,11.46c0-2,1.23-2.92,3.18-2.74a64.53,64.53,0,0,0,7.36,0,2.21,2.21,0,0,0,1.67-1.06C18.46,6,19.68,4.31,20.9,2.58c.21-.3.43-.61.63-.93A2.92,2.92,0,0,1,24.35.26c10.6,0,21.2,0,31.8,0C57,.3,57.91.16,58.8.18a2,2,0,0,1,2.26,2.08A9.66,9.66,0,0,1,61,4.6c-.29,2,.2,2.56,2.2,2.58a16.67,16.67,0,0,0,2.34-.11c2.14-.31,3.32.71,3.36,2.85,0,1,0,2,0,3.06s.41,1.27,1.35,1.33a6.61,6.61,0,0,0,1.83-.06,5.58,5.58,0,0,1,1.63-.07A2,2,0,0,1,75.58,16a16.15,16.15,0,0,1,0,1.84V42c0,.48,0,1,0,1.43.07,1.05.47,1.49,1.51,1.56a13.37,13.37,0,0,0,3.16-.06,4,4,0,0,1,1.73,0,1.84,1.84,0,0,1,1.51,1.8c.07.72.1,1.43.1,2.14v36.2a12.57,12.57,0,0,1-.09,1.62c-.18,1.61-.54,2-2.17,2H19.63a4.89,4.89,0,0,1-1,0,1,1,0,0,1-.53-1c0-.47,0-1,0-1.43V48.13c0-.48,0-1,0-1.43a1.73,1.73,0,0,1,1.32-1.83,1.35,1.35,0,0,0,1.08-1.42c0-3.14.08-6.27-.06-9.4-.08-1.62.12-3.26.09-4.9,0-1.22,0-2.44-.13-3.67a2.35,2.35,0,0,1,2.72-2.91c2.22.18,4.43.11,6.64.16A2.71,2.71,0,0,0,32.1,21.6c1.47-1.92,3-3.76,4.32-5.82A3.29,3.29,0,0,1,40,14.19a18.15,18.15,0,0,0,2.85.15h20a1.73,1.73,0,0,0,1.65-2.65,1.05,1.05,0,0,0-1.16-.62c-8.45.24-16.9.08-25.35.08-1.15,0-2.31-.18-3.47-.18A3,3,0,0,0,32,12.28q-2.09,2.78-4.16,5.56a3.72,3.72,0,0,1-3.45,1.74c-2.17-.13-4.35.1-6.53-.15-.92-.1-1.41.43-1.35,1.48.11,2,.05,3.95.06,5.93q0,7.26,0,14.52a4.44,4.44,0,0,0,.7,2.81A2.87,2.87,0,0,1,17.54,46c0,3.92,0,7.84,0,11.76q0,14.52,0,29c0,.67.2,1.45-.5,2a1.85,1.85,0,0,1-1.45-1Q10.8,80.73,6,73.78c-1.5-2.2-3-4.38-4.52-6.57A8.45,8.45,0,0,1,.11,64.3Z" transform="translate(-0.11 -0.08)" fill="#a11c34"/><path d="M.11,64.3,16.87,88.71c.34-.39.2-.74.2-1.06q0-21,0-42A2.14,2.14,0,0,0,16.58,44,2.57,2.57,0,0,1,16,42.22c0-6.44,0-12.88,0-19.32a16.84,16.84,0,0,1,0-2.75,1.46,1.46,0,0,1,.72-1.2c2.56.25,5.24.12,7.93.2A2.68,2.68,0,0,0,27.07,18c1.46-2,3-3.89,4.41-5.88a3.33,3.33,0,0,1,3.08-1.57c9.09.34,18.18.13,27.27.17.84,0,1.69-.11,2.49-.16a3.19,3.19,0,0,1,.38,4.08,1.4,1.4,0,0,1-.88.14l-22.59,0c-.71,0-1.42-.12-2.14-.12a2.21,2.21,0,0,0-2,1.12,77.27,77.27,0,0,1-4.81,6.46,2.49,2.49,0,0,1-2.28,1c-2.31-.15-4.62,0-6.93-.17-1.62-.13-2.22.58-2.21,2.18q.09,9,.15,18.09a4.14,4.14,0,0,1-.26,1.55c-.4.61-1,.29-1.53.47a1.36,1.36,0,0,0-.68,1.28q0,20.91,0,41.81a.67.67,0,0,0,.06.16H81.73c1.57-.47,1.79-1.77,1.79-3.2q0-18.6,0-37.2c0-2.48-.76-3.05-3.3-2.81a25.25,25.25,0,0,1-3.37,0c-1.14,0-1.63-.59-1.63-1.76q0-13,0-26c0-2.88-.33-3.21-3.26-3-.67.06-1.36,0-2,0-1.13,0-1.54-.36-1.56-1.52s.09-2.25.09-3.37c0-1.72-.83-2.44-2.58-2.34-1.19.07-2.38.11-3.57.14S60.25,7,60.48,5.72a17.23,17.23,0,0,0,.17-3C60.64.91,59.71.13,58,.34a11.25,11.25,0,0,1-1.53.11c-10,0-20,.11-30-.07-2.52,0-4.12.55-5.35,2.77a56.82,56.82,0,0,1-3.62,5,2.21,2.21,0,0,1-2.07,1c-2.65-.1-5.31.12-8-.14a2.1,2.1,0,0,0-2,2q0,7,.07,14c0,1.52.13,3,.2,4.57a1.32,1.32,0,0,1-1.76-.39,5.54,5.54,0,0,1-.78-1.07,1.42,1.42,0,0,0-1.63-.77A1.34,1.34,0,0,0,.29,28.68l-.07.16-.11-.13V.08H83.75V88.84H.11Z" transform="translate(-0.11 -0.08)" fill="#fefefe"/><path d="M.11,28.71a.29.29,0,0,0,.18,0C.23,30.06.52,31.44.11,32.8Z" transform="translate(-0.11 -0.08)" fill="#b24458"/><path d="M71.58,17.65a2,2,0,0,1,.76,1.79q0,12.17,0,24.33c0,1.2-.46,1.64-1.69,1.65s-2.25,0-3.38,0l-41.41,0q-2.32,0-1.95-2.34A10.92,10.92,0,0,0,24,41.46q0-6.9,0-13.81c0-1.37.3-1.66,1.69-1.63,1.95.05,3.89.08,5.83.18a3,3,0,0,0,2.86-1.37c1.58-2.22,3.25-4.36,4.88-6.54A1.78,1.78,0,0,1,41,17.54c1.15.1,2.32.05,3.47.05H70.25C70.72,17.58,71.19,17.63,71.58,17.65Z" transform="translate(-0.11 -0.08)" fill="#fefefe"/><path d="M64,72.7H54.9v8.49H44V72.71H34.81V61.19h9.12V52.07H54.86v9.09H64Z" transform="translate(-0.11 -0.08)" fill="#fefefe"/><path d="M57.27,7.33a3.4,3.4,0,0,1-2.06.32c-6.51-.21-13,0-19.52-.09a22.43,22.43,0,0,1-3-.06,3,3,0,0,0-3,1.59c-1.52,2.14-3.06,4.25-4.75,6.25a2.58,2.58,0,0,1-2.37.86c-1.86-.14-3.74-.08-5.61-.12-.75,0-1.5-.11-2.25-.1a1.84,1.84,0,0,0-2,2c.08,6.27-.12,12.54.11,18.8,0,.55.43,1.13-.1,1.68-.83.28-1.35-.22-1.75-.84a19,19,0,0,0-1.82-2.45,3,3,0,0,1-.6-2.21c.17-6.33.12-12.67,0-19,0-1.29.21-1.57,1.5-1.55,2.25,0,4.5.06,6.75.18a2.75,2.75,0,0,0,2.54-1.38l4.55-6.41a2.56,2.56,0,0,1,2.53-1.1c2.79.16,5.59.09,8.38.1h19c.81,0,1.63-.11,2.44-.11,1.05,0,1.41.37,1.43,1.4C57.69,6.47,57.68,6.54,57.27,7.33Z" transform="translate(-0.11 -0.08)" fill="#fefefe"/></svg>