<svg xmlns="http://www.w3.org/2000/svg" viewBox="0 0 39.91 40.04"><title>erinnerungen-main</title><path d="M9.68,36.17C8.75,37.26,8,38.16,7.24,39s-1.92,1.45-3.06.51-1-2.18-.11-3.3c.72-.91,1.47-1.8,2.31-2.82-4.72-5.68-6.11-12-3.69-19-3.6-4.9-3.57-9.16,0-12.32s7.78-2.71,12,1.18A18.93,18.93,0,0,1,25,3.23C29.64-.92,33.7-.9,37.34,2.29c3.47,3.05,3.39,7.06,0,12.05,1.82,9,1.1,12.63-3.77,19,.8,1,1.65,2,2.42,3.07a2.05,2.05,0,0,1-.26,3.09,1.94,1.94,0,0,1-2.88-.36c-.86-.9-1.63-1.87-2.57-3a20.11,20.11,0,0,1-10.33,3A19.13,19.13,0,0,1,9.68,36.17Z" fill="#a11c34"/><path d="M34.09,21A14.13,14.13,0,1,1,20,6.83,14.14,14.14,0,0,1,34.09,21Z" fill="#fefefe"/><path d="M4.83,10.26c-.9-2.25-.71-3.89.86-5.11a3.61,3.61,0,0,1,4.71,0A28.87,28.87,0,0,0,4.83,10.26Z" fill="#fcf8f9"/><path d="M29.39,5.22c2-1.27,3.52-1.14,4.92,0s1.57,2.89.82,4.93A26.61,26.61,0,0,0,29.39,5.22Z" fill="#fbf7f8"/><path d="M21.92,19.07c1.66.51,3.16.17,4.63.29s2.31.69,2.3,2.1-1,2.06-2.32,2.07c-2.08,0-4.16,0-6.24,0a2.35,2.35,0,0,1-2.65-2.61c-.06-2.91-.05-5.83,0-8.74,0-1.4.68-2.53,2.23-2.45s2.06,1.2,2.05,2.63C21.91,14.61,21.92,16.84,21.92,19.07Z" fill="#a21e36"/></svg>