<svg xmlns="http://www.w3.org/2000/svg" viewBox="0 0 46.08 45.91"><title>graphische-main</title><path d="M0,14.09c0-3.25,0-6.5,0-9.74C0,1.36,1.31,0,4.23,0q10,0,20,0c2.94,0,4.27,1.33,4.28,4.28q.06,10,0,20c0,2.91-1.37,4.21-4.35,4.22q-9.87,0-19.74,0C1.3,28.49,0,27.19,0,24.08,0,20.75,0,17.42,0,14.09Z" fill="#a21c34"/><path d="M35.17,22.86l5.19,5.27L22.54,45.91H17.63V40.35Z" fill="#a11c34"/><path d="M37,20.64c1.21-1.05,2.05-2.57,3.9-3.2a25.88,25.88,0,0,1,5.17,5c-.47,2-2.15,2.83-3.11,4Z" fill="#a21d35"/><path d="M24.82,24.88H3.63V3.7H24.82Z" fill="#f1dee2"/><path d="M4.22,4.16H24.33V24.31H4.22Z" fill="#fefefe"/><path d="M12.62,5.5h3.22V23H12.62Z" fill="#a11c34"/><path d="M8.81,22.9A8,8,0,0,1,5.57,23V10.91a5,5,0,0,1,3.24-.06Z" fill="#a32037"/><path d="M19.73,16.11h3.2A32.79,32.79,0,0,1,23,22.9a7.9,7.9,0,0,1-3.25.1Z" fill="#a31f36"/></svg>