<svg xmlns="http://www.w3.org/2000/svg" viewBox="0 0 40.01 40.03"><title>infothek-main</title><path d="M40,16.06c0,3.74,0,7.48,0,11.22C40,30.52,38.5,32,35.25,32Q24,32,12.79,32C9.52,32,8,30.54,8,27.32Q8,16,8,4.62C8,1.54,9.54,0,12.63,0Q24,0,35.34,0C38.54,0,40,1.54,40,4.83,40,8.57,40,12.31,40,16.06Z" fill="#a11c34"/><path d="M4,8.14V36h27.9v4H13.39c-3.08,0-6.16.06-9.24,0-2.4-.06-4.08-1.52-4.1-3.81-.08-9.3,0-18.6,0-28Z" fill="#a11c34"/><path d="M33.88,25.91H14.12V6.13H33.88Z" fill="#fefefe"/><path d="M25.84,23.93H22.16V14.21c1.1-.47,2.33,0,3.68-.28Z" fill="#a11c34"/><path d="M25.75,11.91H22.11V8.12H26C26,9.48,26.24,10.74,25.75,11.91Z" fill="#a11c34"/></svg>