<svg xmlns="http://www.w3.org/2000/svg" viewBox="0 0 40.04 40.03"><title>kalender-main</title><path d="M25.6,2c2-2.64,2.87-2.65,4.82,0,2.19,0,4.44.05,6.68,0C39.05,1.94,40,2.7,40,4.76Q40,21,40,37.22c0,2-.91,2.81-2.89,2.81Q20.05,40,2.94,40C.79,40,0,39.1,0,37q.08-16,0-32C0,2.76,1,1.89,3.16,2S7.48,2,9.6,2c2-2.66,2.87-2.66,4.82,0Z" fill="#a11c34"/><path d="M35.87,35.94H4.18V16.16H35.87Z" fill="#fefefe"/><path d="M25.74,6.05c1.83,2.65,2.74,2.65,4.56,0h5.57v5.79H4.18V6.15H9.65c2,2.54,2.83,2.54,4.7-.1Z" fill="#fefefe"/><path d="M10.11,24.09V20.23c1.17-.44,2.38-.14,3.67-.2.47,1.23.17,2.45.22,3.72C12.78,24.28,11.55,23.84,10.11,24.09Z" fill="#a11c34"/><path d="M21.83,23.91H18.14V20.12h3.69Z" fill="#a11c34"/><path d="M30.05,23.91H26.28c-.49-1.17-.2-2.44-.2-3.8h3.69C30.34,21.2,29.89,22.44,30.05,23.91Z" fill="#a11c34"/><path d="M10.12,31.89V28.13H13.9v3.76Z" fill="#a11c34"/><path d="M18.11,31.88V28.14h3.78v3.74Z" fill="#a11c34"/><path d="M26.1,31.86v-3.7h3.78v3.7Z" fill="#a11c34"/></svg>