<svg xmlns="http://www.w3.org/2000/svg" viewBox="0 0 39.92 38.01"><title>medikation-main</title><path d="M27.26,0c3.32,0,6.64,0,10,0,1.39,0,2.63.32,2.7,1.89C40,3.63,38.71,4,37.21,4Q27,4,16.78,4c-1.38,0-2.63-.32-2.69-1.9C14,.38,15.3,0,16.79,0,20.28,0,23.77,0,27.26,0Z" fill="#a11c34"/><path d="M27,18c-3.41,0-6.81,0-10.22,0-1.49,0-2.78-.38-2.7-2.12C14.15,14.32,15.4,14,16.78,14Q27,14,37.21,14c1.5,0,2.78.38,2.71,2.12-.07,1.58-1.31,1.91-2.7,1.9C33.82,18,30.41,18,27,18Z" fill="#a11c34"/><path d="M27,28c3.41,0,6.81,0,10.22,0,1.49,0,2.78.38,2.71,2.12-.06,1.57-1.31,1.9-2.69,1.9Q27,32,16.8,32c-1.5,0-2.78-.37-2.71-2.11.06-1.58,1.3-1.91,2.69-1.9C20.18,28,23.59,28,27,28Z" fill="#a11c34"/><path d="M5.05,10C1.49,10,0,8.59,0,5.12,0,1.45,1.43,0,5.08,0,8.57,0,10,1.48,10,5S8.55,10,5.05,10Z" fill="#a21d35"/><path d="M4.93,24C1.44,24,0,22.53,0,19s1.5-5,5.2-5C8.61,14,10,15.56,10,19.14S8.5,24,4.93,24Z" fill="#a21d35"/><path d="M10,33.22C10,36.62,8.45,38,4.85,38S-.06,36.45,0,32.67C.06,29.34,1.63,28,5.28,28,8.64,28.05,10,29.6,10,33.22Z" fill="#a21d35"/><path d="M18.09,10H16.85c-1.47.05-2.79-.3-2.77-2s1.39-2,2.84-2c.83,0,1.65,0,2.48,0,1.42,0,2.55.48,2.53,2s-1.2,2-2.6,2Z" fill="#a21e36"/><path d="M18.09,24c-.41,0-.82,0-1.24,0-1.47,0-2.79-.3-2.77-2s1.39-2,2.84-2c.83,0,1.65,0,2.48,0,1.42,0,2.55.48,2.53,2s-1.2,2-2.6,2C18.92,24,18.51,24,18.09,24Z" fill="#a21e36"/><path d="M17.92,38c-.58,0-1.16,0-1.74,0a1.92,1.92,0,0,1-2.11-2,1.88,1.88,0,0,1,2-2c1.07-.06,2.15,0,3.22,0,1.4,0,2.57.41,2.6,2S20.82,38,19.4,38H17.92Z" fill="#a21e36"/><path d="M6,5c.09.78-.32,1-1,1S4,5.68,4,5s.33-1,1-1S6.08,4.33,6,5Z" fill="#fefefe"/><path d="M6,18.92c.07.66-.08,1.1-.89,1.09C4.44,20,4,19.92,4,19.1c0-.66.09-1.11.91-1.1C5.57,18,6.08,18.08,6,18.92Z" fill="#fefefe"/><path d="M6,33c.09.92-.42,1-1.07,1-.82,0-.9-.44-.91-1.1,0-.82.44-.91,1.1-.91S6.09,32.41,6,33Z" fill="#fefefe"/></svg>