<svg xmlns="http://www.w3.org/2000/svg" viewBox="0 0 36.48 36.43"><title>medikamentenplan-main</title><path d="M23.93,12.05A12,12,0,0,1,11.75,24C5.43,23.8-.23,18.42,0,11.78A11.74,11.74,0,0,1,12.09,0,11.93,11.93,0,0,1,23.93,12.05Z" fill="#a11c34"/><path d="M36.46,22.15a4.22,4.22,0,0,1-1.4,3.38c-3.17,3.18-6.39,6.31-9.51,9.54-1.71,1.78-5.28,1.69-6.84.42-2.24-1.82-3.07-4.28-1.61-7a7.4,7.4,0,0,1,1.33-1.77q4.16-4.12,8.3-8.29a6.25,6.25,0,0,1,3.61-2A5.42,5.42,0,0,1,36.46,22.15Z" fill="#a32038"/><path d="M11.41,12.49c0-2.37,0-4.43,0-6.48,0-.41.11-.56.63-.54s.42.22.42.51c0,1.32,0,2.64,0,4,0,.55,0,1,.15,1.23s.68.18,1.33.2c1.24,0,2.48,0,3.71,0,.33,0,.69,0,.71.48.05.59-.39.61-.82.61Z" fill="#fefefe"/><path d="M29.6,29a21.44,21.44,0,0,1-5.76-5.79c1.53-1.52,3-3.11,4.59-4.52,1.81-1.6,5.37-1,6.2,1.07A4.79,4.79,0,0,1,34,24.63C32.56,26.11,31.08,27.55,29.6,29Z" fill="#fefdfd"/><path d="M22.83,24.2a26.63,26.63,0,0,0,5.64,5.72,11.72,11.72,0,0,1-2.09,2.31,14.84,14.84,0,0,1-2.33,2.23,4.34,4.34,0,0,1-4.25.13,3.22,3.22,0,0,1-2-3.13,4.09,4.09,0,0,1,1.29-3.57C20.37,26.8,21.48,25.56,22.83,24.2Z" fill="#fefdfd"/></svg>