<svg xmlns="http://www.w3.org/2000/svg" viewBox="0 0 39.79 39.96"><title>mitteilungen-main</title><path d="M10.77,37.9a13.36,13.36,0,0,1-7.42,2c-1.32-.07-2.53-.43-3-1.8s.14-2.56,1.44-3.36A4.42,4.42,0,0,0,3.85,32.4C-2.3,21.07-1,11,7.34,4.36A20,20,0,0,1,36.79,30.5C32.42,37.66,22.29,43.07,10.77,37.9Z" fill="#a11c34"/><path d="M10.71,33.43,6.92,35.5c.22-1.46,1.36-2.33,1.31-4.1C4.57,27,2.64,21.71,4.38,15.57A15.57,15.57,0,0,1,10.46,7a16,16,0,1,1,12.9,28.58C18.79,36.72,14.67,35.42,10.71,33.43Z" fill="#fefefe"/><path d="M11.67,18c1.25.15,2,.75,2.07,1.89a1.82,1.82,0,0,1-2,2.06,1.82,1.82,0,0,1-1.94-2.08A2,2,0,0,1,11.67,18Z" fill="#a5263c"/><path d="M21.78,20.13a1.93,1.93,0,0,1-2,1.81,1.81,1.81,0,0,1-1.95-2.06A1.82,1.82,0,0,1,20,18.06,1.93,1.93,0,0,1,21.78,20.13Z" fill="#a5263c"/><path d="M27.85,22c-1.22-.13-2-.76-2-2a1.8,1.8,0,0,1,1.87-1.9,1.83,1.83,0,0,1,2,2C29.74,21.19,29,21.8,27.85,22Z" fill="#a5263c"/></svg>