<svg xmlns="http://www.w3.org/2000/svg" viewBox="0 0 40.04 40.13"><title>nachrichten-main</title><path d="M0,30.1V26c0-7.66,0-15.32,0-23C0,.93.79,0,2.94,0Q15.06.08,27.18,0c2,0,2.87.84,2.86,2.85C30,8.27,30,13.68,30,19.1c0,2.15-.93,3-3,2.94-5.67-.06-11.33,0-17-.05a4.23,4.23,0,0,0-3.49,1.46C4.6,25.56,2.53,27.56,0,30.1Z" fill="#a11c34"/><path d="M40,40.13c-2.58-2.63-4.7-4.71-6.72-6.88A3.78,3.78,0,0,0,30.24,32c-6.25.06-12.5,0-18.75,0a3.68,3.68,0,0,1-3.43-5.46c.44-1,1.31-.51,2-.52,7.33,0,14.66-.07,22,0,1.68,0,2.07-.5,2-2.09-.11-4.5-.07-9,0-13.5,0-1.06-.68-2.53,1.57-2.5,3.49,0,4.32.33,4.39,2.57.08,2.66,0,5.33,0,8Z" fill="#a11c34"/></svg>