<svg xmlns="http://www.w3.org/2000/svg" viewBox="0 0 40.23 40.01"><title>profil-main</title><path d="M36.11,36A9.94,9.94,0,0,0,31,27.7c-1.3-.78-2.59-1.66-1.59-3.31s2.4-.87,3.66-.09c5.12,3.13,7.2,7.79,7.13,13.67,0,1.67-.57,2.05-2.15,2-8.5-.08-17,0-25.49,0C9,40,5.42,40,1.84,40c-.65,0-1.43.34-1.67-.89-.92-4.76,1.93-11.73,6-14.26a16.29,16.29,0,0,1,2-1c1.17-.56,2.36-.64,3,.69s-.08,2.39-1.41,2.94c-3.19,1.29-4.66,3.81-5.26,7C4.3,35.49,4.3,36,5.56,36,15.72,36,25.87,36,36.11,36Z" fill="#a11c34"/><path d="M9.24,13.41c-.32-4,.44-7.71,3.64-10.58a10.88,10.88,0,0,1,17.8,5.1,23.1,23.1,0,0,1,.15,10.87,10.79,10.79,0,0,1-11.31,8.54A11,11,0,0,1,9.25,17C9.17,15.82,9.24,14.65,9.24,13.41Z" fill="#a11c34"/><path d="M27.18,13.81c0,1,.07,2,0,3a7,7,0,0,1-13.91.09,43.94,43.94,0,0,1,0-6.49,7,7,0,0,1,13.91.16C27.25,11.64,27.18,12.73,27.18,13.81Z" fill="#fefefe"/></svg>