<svg xmlns="http://www.w3.org/2000/svg" viewBox="0 0 32.03 40.03"><title>rezept-main</title><path d="M2,12.51c-.55-.81-1.42-.2-2-.88C0,9.15,0,6.57.05,4A3.84,3.84,0,0,1,4,.05q12-.11,24,0a3.91,3.91,0,0,1,4,4c0,.5,0,1,0,1.5V9.84l-2,.37c0,8.19,0,16.26,0,24.33,0,4.24-1.25,5.48-5.5,5.48H7c-3.58,0-5-1.41-5-5C2,27.47,2,19.91,2,12.51Z" fill="#a11c34"/><path d="M26,12.18V35.87H6.18V12.18Z" fill="#fefefe"/><path d="M10.09,8V4.22a12.51,12.51,0,0,1,3.73-.16A13.1,13.1,0,0,1,14,7.82,13.86,13.86,0,0,1,10.09,8Z" fill="#fefefe"/><path d="M18.22,4.13h3.69V7.91H18.22Z" fill="#fefefe"/><path d="M5.91,7.79a1.87,1.87,0,0,1-1.78,0V4.33C4.57,3.79,5.19,4,5.91,4.2Z" fill="#fefefe"/><path d="M26.14,4.25a1.85,1.85,0,0,1,1.77,0V7.71c-.42.64-1.07.16-1.77.32Z" fill="#fefefe"/><path d="M18,26v3.92H13.6V26.37c-1.26-.69-2.55-.12-3.86-.47-.5-1.28,0-2.67-.26-4,1.26-.73,2.55-.09,3.79-.49.61-1.1,0-2.39.42-3.71h4.1c.58,1.11-.05,2.4.39,3.62,1.13.56,2.42-.06,3.71.41V26Z" fill="#a11c34"/></svg>