<svg xmlns="http://www.w3.org/2000/svg" viewBox="0 0 38.26 38.26"><title>tagliche-main</title><path d="M38.25,19.25c0,4.82,0,9.65,0,14.47,0,3.23-1.31,4.51-4.56,4.52q-14.61,0-29.21,0C1.36,38.23,0,36.93,0,33.86Q0,19.15,0,4.41C0,1.33,1.35,0,4.46,0q14.6,0,29.2,0C37,0,38.22,1.31,38.24,4.77,38.27,9.59,38.25,14.42,38.25,19.25Z" fill="#a21c34"/><path d="M3.89,34.34V19.25l2.6-.19L9.7,16l5.58,6.17,7.78-9.67,7.28,7.53,4-3.67v18Z" fill="#fefefe"/><path d="M30.57,14.43,23,6.42l-8,10-4.86-6c-2.51,1.84-3.78,4-6.25,5.32V4H34.34v7Z" fill="#fdfdfd"/><path d="M28.87,23.2a8,8,0,0,1,3.58,0v9.15c-1.11.53-2.26.2-3.58.22Z" fill="#a5243b"/><path d="M13.46,32.46V23.27c1.2-.49,2.33-.17,3.59-.27v9.4A9.34,9.34,0,0,1,13.46,32.46Z" fill="#a4223a"/><path d="M9.5,26.84v5.59H5.91c-.54-1.69-.14-3.49-.21-5.33C6.9,26.46,8.1,26.77,9.5,26.84Z" fill="#a7293f"/><path d="M21.19,32.55v-5.7a9.13,9.13,0,0,1,3.57.08,18.29,18.29,0,0,1,0,5.43A10.33,10.33,0,0,1,21.19,32.55Z" fill="#a6283e"/></svg>